<svg xmlns="http://www.w3.org/2000/svg" width="16" height="112" viewBox="0 0 16 112">
  <metadata><?xpacket begin="﻿" id="W5M0MpCehiHzreSzNTczkc9d"?>
<x:xmpmeta xmlns:x="adobe:ns:meta/" x:xmptk="Adobe XMP Core 5.6-c138 79.159824, 2016/09/14-01:09:01        ">
   <rdf:RDF xmlns:rdf="http://www.w3.org/1999/02/22-rdf-syntax-ns#">
      <rdf:Description rdf:about=""/>
   </rdf:RDF>
</x:xmpmeta>
                                                                                                    
                                                                                                    
                                                                                                    
                                                                                                    
                                                                                                    
                                                                                                    
                                                                                                    
                                                                                                    
                                                                                                    
                                                                                                    
                                                                                                    
                                                                                                    
                                                                                                    
                                                                                                    
                                                                                                    
                                                                                                    
                                                                                                    
                                                                                                    
                                                                                                    
                                                                                                    
                           
<?xpacket end="w"?></metadata>
<defs>
    <style>
      .cls-1 {
        fill: #eef4ff;
        fill-rule: evenodd;
        opacity: 0.28;
      }
    </style>
  </defs>
  <path id="Фигура_1" data-name="Фигура 1" class="cls-1" d="M960,824a2,2,0,0,1,2,2v7a2,2,0,0,1-4,0v-7A2,2,0,0,1,960,824Zm0,76a2,2,0,0,1,2,2v7a2,2,0,0,1-4,0v-7A2,2,0,0,1,960,900Zm0,17a2,2,0,0,1,2,2v3a2,2,0,1,1-4,0v-3A2,2,0,0,1,960,917Zm-8,9,8,6.334L968,926v3.673L960,936l-8-6.335V926Z" transform="translate(-952 -824)"/>
</svg>
