<svg xmlns="http://www.w3.org/2000/svg" width="43" height="35" viewBox="0 0 43 35">
  <metadata><?xpacket begin="﻿" id="W5M0MpCehiHzreSzNTczkc9d"?>
<x:xmpmeta xmlns:x="adobe:ns:meta/" x:xmptk="Adobe XMP Core 5.6-c138 79.159824, 2016/09/14-01:09:01        ">
   <rdf:RDF xmlns:rdf="http://www.w3.org/1999/02/22-rdf-syntax-ns#">
      <rdf:Description rdf:about=""/>
   </rdf:RDF>
</x:xmpmeta>
                                                                                                    
                                                                                                    
                                                                                                    
                                                                                                    
                                                                                                    
                                                                                                    
                                                                                                    
                                                                                                    
                                                                                                    
                                                                                                    
                                                                                                    
                                                                                                    
                                                                                                    
                                                                                                    
                                                                                                    
                                                                                                    
                                                                                                    
                                                                                                    
                                                                                                    
                                                                                                    
                           
<?xpacket end="w"?></metadata>
<defs>
    <style>
      .cls-1 {
        fill: #09555f;
        fill-rule: evenodd;
      }
    </style>
  </defs>
  <path class="cls-1" d="M1370.1,4655h-39.2a1.887,1.887,0,0,0-1.9,1.87v31.26a1.887,1.887,0,0,0,1.9,1.87h39.2a1.887,1.887,0,0,0,1.9-1.87v-31.26A1.887,1.887,0,0,0,1370.1,4655Zm0,33.13h-39.2v-31.26h39.2v31.26Zm-3.56-28.68h-32.08a0.947,0.947,0,0,0-.95.94v20.7a0.947,0.947,0,0,0,.95.94h32.08a0.947,0.947,0,0,0,.95-0.94v-20.7A0.947,0.947,0,0,0,1366.54,4659.45Zm-31.13,1.88h30.18v15.85l-5.98-5.9a0.966,0.966,0,0,0-1.34,0l-3.65,3.6-8.36-8.25a0.96,0.96,0,0,0-1.35,0l-9.5,9.38v-14.68h0Zm0,18.83v-1.5l10.18-10.04,11.69,11.54h-21.87Zm30.18,0h-5.62l-4.01-3.96,2.98-2.93,6.43,6.35a1.122,1.122,0,0,0,.22.16v0.38h0Zm-11.03-17.06a3.545,3.545,0,1,0,3.59,3.54A3.57,3.57,0,0,0,1354.56,4663.1Zm0,5.21a1.665,1.665,0,1,1,1.69-1.67A1.684,1.684,0,0,1,1354.56,4668.31Zm-11.84,15.83h-8.26a0.935,0.935,0,1,0,0,1.87h8.26A0.935,0.935,0,1,0,1342.72,4684.14Zm6.49,0h-2.16a0.935,0.935,0,1,0,0,1.87h2.16A0.935,0.935,0,1,0,1349.21,4684.14Z" transform="translate(-1329 -4655)"/>
</svg>
