<svg xmlns="http://www.w3.org/2000/svg" width="39" height="39" viewBox="0 0 39 39">
  <metadata><?xpacket begin="﻿" id="W5M0MpCehiHzreSzNTczkc9d"?>
<x:xmpmeta xmlns:x="adobe:ns:meta/" x:xmptk="Adobe XMP Core 5.6-c138 79.159824, 2016/09/14-01:09:01        ">
   <rdf:RDF xmlns:rdf="http://www.w3.org/1999/02/22-rdf-syntax-ns#">
      <rdf:Description rdf:about=""/>
   </rdf:RDF>
</x:xmpmeta>
                                                                                                    
                                                                                                    
                                                                                                    
                                                                                                    
                                                                                                    
                                                                                                    
                                                                                                    
                                                                                                    
                                                                                                    
                                                                                                    
                                                                                                    
                                                                                                    
                                                                                                    
                                                                                                    
                                                                                                    
                                                                                                    
                                                                                                    
                                                                                                    
                                                                                                    
                                                                                                    
                           
<?xpacket end="w"?></metadata>
<defs>
    <style>
      .cls-1 {
        fill: #09555f;
        fill-rule: evenodd;
      }
    </style>
  </defs>
  <path class="cls-1" d="M1370,4219.31v-28.47h-8.22c1.21-1.99,1.85-3.72,1.07-4.5-1.37-1.37-5.67,1.64-9.13,4.5H1331v28.47h12.19v4.06h-3.25V4225h21.12v-1.63h-3.25v-4.06H1370Zm-8.4-31.71c-0.33,1.63-4.33,7.22-8.62,11.51a27.828,27.828,0,0,1-2.27,2.07l-2.68-2.68a27.828,27.828,0,0,1,2.07-2.27C1354.39,4191.93,1359.97,4187.93,1361.6,4187.6Zm-12.22,14.55a5.542,5.542,0,0,1-1.05.54,1.3,1.3,0,0,1-1.43-.09,5,5,0,0,0-.39-0.41,1.416,1.416,0,0,1,.01-1.3,5.314,5.314,0,0,1,.54-1.06Zm-16.75-9.69h19.18c-1.66,1.45-2.83,2.58-2.86,2.62-2.16,2.16-3.46,3.88-3.96,5.25a4.089,4.089,0,0,0-.23,1.03,3.222,3.222,0,0,0-.93-0.02c-2.93.45-3.4,3.77-3.41,3.91a3.881,3.881,0,0,1-2.15,3.07,0.909,0.909,0,0,0-.51.9,0.93,0.93,0,0,0,.68.8,10.025,10.025,0,0,0,2.52.34,6.925,6.925,0,0,0,6.02-3.34,3.99,3.99,0,0,0,.66-2.55,3.853,3.853,0,0,0,1.24-.25c1.37-.5,3.09-1.79,5.24-3.96a77.664,77.664,0,0,0,6.58-7.8h7.67v20.34h-35.74v-20.34Zm12.98,13.69a5.326,5.326,0,0,1-5.14,2.57,5.557,5.557,0,0,0,1.56-3.26c0.01-.09.33-2.25,2.04-2.51a1.616,1.616,0,0,1,1.23.35,4.283,4.283,0,0,0,.29.33c0.03,0.03.07,0.05,0.1,0.08a2.135,2.135,0,0,1,.23.42A2.278,2.278,0,0,1,1345.61,4206.15Zm10.58,17.22h-11.38v-4.06h11.38v4.06Zm-23.56-5.69v-3.26h35.74v3.26h-35.74Z" transform="translate(-1331 -4186)"/>
</svg>
