<svg xmlns="http://www.w3.org/2000/svg" width="41" height="34" viewBox="0 0 41 34">
  <metadata><?xpacket begin="﻿" id="W5M0MpCehiHzreSzNTczkc9d"?>
<x:xmpmeta xmlns:x="adobe:ns:meta/" x:xmptk="Adobe XMP Core 5.6-c138 79.159824, 2016/09/14-01:09:01        ">
   <rdf:RDF xmlns:rdf="http://www.w3.org/1999/02/22-rdf-syntax-ns#">
      <rdf:Description rdf:about=""/>
   </rdf:RDF>
</x:xmpmeta>
                                                                                                    
                                                                                                    
                                                                                                    
                                                                                                    
                                                                                                    
                                                                                                    
                                                                                                    
                                                                                                    
                                                                                                    
                                                                                                    
                                                                                                    
                                                                                                    
                                                                                                    
                                                                                                    
                                                                                                    
                                                                                                    
                                                                                                    
                                                                                                    
                                                                                                    
                                                                                                    
                           
<?xpacket end="w"?></metadata>
<defs>
    <style>
      .cls-1 {
        fill: #09555f;
        fill-rule: evenodd;
      }
    </style>
  </defs>
  <path class="cls-1" d="M508.291,4570.5V4545H470.708v25.5H469v4.6l3.917,3.9h33.166l3.917-3.9v-4.6h-1.709Zm-35.874-23.8h34.166v23.8H472.417v-23.8Zm35.874,27.7-2.916,2.9H473.624l-2.916-2.9v-2.2h37.583v2.2Zm-19.645-.5h1.708v1.7h-1.708v-1.7Zm-3.417,0h1.708v1.7h-1.708v-1.7Zm6.833,0h1.709v1.7h-1.709v-1.7Zm5.387-15.67-5.038-1.42-2.911-4.33-2.911,4.33-5.039,1.42,3.24,4.09-0.2,5.2,4.913-1.8,4.912,1.8-0.2-5.2Zm-7.949,5.68-3.107,1.14,0.129-3.29-2.049-2.59,3.186-.89,1.841-2.74,1.84,2.74,3.186,0.89-2.048,2.59,0.129,3.29Zm14.274-7.88-5.039-1.42-2.911-4.33-2.731,4.07,1.42,0.94,1.311-1.95,1.84,2.74,3.187,0.9-2.049,2.58,0.129,3.3-2.057-.76-0.591,1.6,4.454,1.63-0.2-5.21Zm-20.6-5.75-2.91,4.33-5.039,1.42,3.24,4.09-0.2,5.21,4.454-1.63-0.591-1.6-2.057.76,0.128-3.3-2.048-2.58,3.186-.9,1.84-2.74,1.312,1.95,1.419-.94Z" transform="translate(-469 -4545)"/>
</svg>
