<svg xmlns="http://www.w3.org/2000/svg" width="39" height="36" viewBox="0 0 39 36">
  <metadata><?xpacket begin="﻿" id="W5M0MpCehiHzreSzNTczkc9d"?>
<x:xmpmeta xmlns:x="adobe:ns:meta/" x:xmptk="Adobe XMP Core 5.6-c138 79.159824, 2016/09/14-01:09:01        ">
   <rdf:RDF xmlns:rdf="http://www.w3.org/1999/02/22-rdf-syntax-ns#">
      <rdf:Description rdf:about=""/>
   </rdf:RDF>
</x:xmpmeta>
                                                                                                    
                                                                                                    
                                                                                                    
                                                                                                    
                                                                                                    
                                                                                                    
                                                                                                    
                                                                                                    
                                                                                                    
                                                                                                    
                                                                                                    
                                                                                                    
                                                                                                    
                                                                                                    
                                                                                                    
                                                                                                    
                                                                                                    
                                                                                                    
                                                                                                    
                                                                                                    
                           
<?xpacket end="w"?></metadata>
<defs>
    <style>
      .cls-1 {
        fill: #09555f;
        fill-rule: evenodd;
      }
    </style>
  </defs>
  <path class="cls-1" d="M765.028,4448.17a1.19,1.19,0,1,1-1.218,1.19A1.2,1.2,0,0,1,765.028,4448.17Zm4.99,2.38h0a1.19,1.19,0,1,0,0-2.38h0A1.19,1.19,0,1,0,770.018,4450.55Zm4.983-2.38a1.19,1.19,0,1,1-1.218,1.19A1.2,1.2,0,0,1,775,4448.17Zm4.99,0a1.19,1.19,0,1,1-1.218,1.19A1.2,1.2,0,0,1,779.991,4448.17Zm4.991,0a1.19,1.19,0,1,1-1.218,1.19A1.2,1.2,0,0,1,784.982,4448.17Zm4.99,0a1.19,1.19,0,1,1-1.218,1.19A1.2,1.2,0,0,1,789.972,4448.17Zm-22.445,5.04a1.185,1.185,0,1,1-1.218,1.19A1.2,1.2,0,0,1,767.527,4453.21Zm4.982,0a1.185,1.185,0,1,1-1.217,1.19A1.2,1.2,0,0,1,772.509,4453.21Zm4.991,0a1.185,1.185,0,1,1-1.218,1.19A1.2,1.2,0,0,1,777.5,4453.21Zm4.982,0a1.185,1.185,0,1,1-1.217,1.19A1.2,1.2,0,0,1,782.482,4453.21Zm4.991,0a1.185,1.185,0,1,1-1.218,1.19A1.2,1.2,0,0,1,787.473,4453.21Zm-19.643,6.22a0.967,0.967,0,0,0,.978.95h17.4a0.955,0.955,0,1,0,0-1.91H768.8A0.968,0.968,0,0,0,767.83,4459.43Zm12.885-21.74h5.643a3.846,3.846,0,1,0,0-7.69l-19.141.01a0.95,0.95,0,1,0,.008,1.9h0l19.141-.01a1.946,1.946,0,1,1,0,3.89h-5.643a4.226,4.226,0,0,0-4.274,4.16v2.85h-16.2a2.169,2.169,0,0,0-2.252,2.06v19.07a2.171,2.171,0,0,0,2.252,2.07h34.5a2.171,2.171,0,0,0,2.253-2.07v-19.07a2.17,2.17,0,0,0-2.253-2.06H778.4v-2.85A2.286,2.286,0,0,1,780.715,4437.69Zm14.335,7.17v19.07a0.279,0.279,0,0,1-.3.17h-34.5a0.278,0.278,0,0,1-.3-0.17v-19.07a0.278,0.278,0,0,1,.3-0.17h34.5A0.284,0.284,0,0,1,795.05,4444.86Z" transform="translate(-758 -4430)"/>
</svg>
