<svg xmlns="http://www.w3.org/2000/svg" width="46" height="35" viewBox="0 0 46 35">
  <metadata><?xpacket begin="﻿" id="W5M0MpCehiHzreSzNTczkc9d"?>
<x:xmpmeta xmlns:x="adobe:ns:meta/" x:xmptk="Adobe XMP Core 5.6-c138 79.159824, 2016/09/14-01:09:01        ">
   <rdf:RDF xmlns:rdf="http://www.w3.org/1999/02/22-rdf-syntax-ns#">
      <rdf:Description rdf:about=""/>
   </rdf:RDF>
</x:xmpmeta>
                                                                                                    
                                                                                                    
                                                                                                    
                                                                                                    
                                                                                                    
                                                                                                    
                                                                                                    
                                                                                                    
                                                                                                    
                                                                                                    
                                                                                                    
                                                                                                    
                                                                                                    
                                                                                                    
                                                                                                    
                                                                                                    
                                                                                                    
                                                                                                    
                                                                                                    
                                                                                                    
                           
<?xpacket end="w"?></metadata>
<defs>
    <style>
      .cls-1 {
        fill: #09555f;
        fill-rule: evenodd;
      }
    </style>
  </defs>
  <path class="cls-1" d="M1091.82,4437.86a0.965,0.965,0,0,0-1.35-.23,0.978,0.978,0,0,0-.24,1.36,9.93,9.93,0,0,1,0,11.46,0.978,0.978,0,0,0,.24,1.36,0.957,0.957,0,0,0,.56.18,0.974,0.974,0,0,0,.79-0.42A11.868,11.868,0,0,0,1091.82,4437.86Zm-9.09.63v-4.63a2.814,2.814,0,0,0-1.45-2.49,2.844,2.844,0,0,0-2.9.06,30.142,30.142,0,0,1-15.69,4.38h-7.1a3.312,3.312,0,0,0-3.3,3.04h-1.56a2.734,2.734,0,0,0-2.73,2.73v6.28a2.734,2.734,0,0,0,2.73,2.73h1.56a3.319,3.319,0,0,0,2.09,2.81l4.11,11.35a1.9,1.9,0,0,0,1.78,1.25h5.35a1.875,1.875,0,0,0,1.55-.81,1.9,1.9,0,0,0,.23-1.73l-3.56-9.81a30.1,30.1,0,0,1,14.54,4.36,2.8,2.8,0,0,0,1.49.43,2.858,2.858,0,0,0,1.41-.37,2.814,2.814,0,0,0,1.45-2.49v-4.63A6.263,6.263,0,0,0,1082.73,4438.49Zm-30.46,10.15h-1.54a0.781,0.781,0,0,1-.78-0.78v-6.28a0.781,0.781,0,0,1,.78-0.78h1.54v7.84Zm13.27,15.41h-5.23l-3.78-10.42h5.23Zm14.78-7.68a0.887,0.887,0,0,1-.93-0.02,32.119,32.119,0,0,0-16.7-4.67h-7.1a1.366,1.366,0,0,1-1.37-1.37v-11.18a1.366,1.366,0,0,1,1.37-1.37h5.88v10.16a0.97,0.97,0,0,0,1.94,0v-10.17a32.113,32.113,0,0,0,15.98-4.66,0.887,0.887,0,0,1,.93-0.02,0.873,0.873,0,0,1,.46.79v21.72h0A0.873,0.873,0,0,1,1080.32,4456.37Zm2.41-7.38v-8.54A4.317,4.317,0,0,1,1082.73,4448.99Z" transform="translate(-1048 -4431)"/>
</svg>
