<svg xmlns="http://www.w3.org/2000/svg" width="41" height="35" viewBox="0 0 41 35">
  <metadata><?xpacket begin="﻿" id="W5M0MpCehiHzreSzNTczkc9d"?>
<x:xmpmeta xmlns:x="adobe:ns:meta/" x:xmptk="Adobe XMP Core 5.6-c138 79.159824, 2016/09/14-01:09:01        ">
   <rdf:RDF xmlns:rdf="http://www.w3.org/1999/02/22-rdf-syntax-ns#">
      <rdf:Description rdf:about=""/>
   </rdf:RDF>
</x:xmpmeta>
                                                                                                    
                                                                                                    
                                                                                                    
                                                                                                    
                                                                                                    
                                                                                                    
                                                                                                    
                                                                                                    
                                                                                                    
                                                                                                    
                                                                                                    
                                                                                                    
                                                                                                    
                                                                                                    
                                                                                                    
                                                                                                    
                                                                                                    
                                                                                                    
                                                                                                    
                                                                                                    
                           
<?xpacket end="w"?></metadata>
<defs>
    <style>
      .cls-1 {
        fill: #09555f;
        fill-rule: evenodd;
      }
    </style>
  </defs>
  <path id="Forma_1" data-name="Forma 1" class="cls-1" d="M795.889,4660H757.111a1.124,1.124,0,0,0-1.111,1.13v25.05a1.117,1.117,0,0,0,1.111,1.13h5.4a1.13,1.13,0,0,0,0-2.26h-4.293v-22.79h36.554v22.79H781.115a1.1,1.1,0,0,0-.948.54l-3.667,6.11-3.667-6.11a1.109,1.109,0,0,0-1.528-.38,1.151,1.151,0,0,0-.368,1.56l4.615,7.69a1.1,1.1,0,0,0,1.9,0l4.29-7.15h14.151a1.117,1.117,0,0,0,1.111-1.13v-25.05A1.124,1.124,0,0,0,795.889,4660Zm-15.662,11.31a1.1,1.1,0,0,0-1.572,0l-3.16,3.22-1.15-1.17a1.1,1.1,0,0,0-1.572,0,1.146,1.146,0,0,0,0,1.6l1.936,1.97a1.1,1.1,0,0,0,1.572,0l3.946-4.02A1.146,1.146,0,0,0,780.227,4671.31Zm4.486,2.81a8.214,8.214,0,1,0-8.213,8.37A8.3,8.3,0,0,0,784.713,4674.12Zm-14.2,0a5.991,5.991,0,1,1,5.99,6.1A6.055,6.055,0,0,1,770.51,4674.12Z" transform="translate(-756 -4660)"/>
</svg>
