<svg xmlns="http://www.w3.org/2000/svg" width="39" height="36" viewBox="0 0 39 36">
  <metadata><?xpacket begin="﻿" id="W5M0MpCehiHzreSzNTczkc9d"?>
<x:xmpmeta xmlns:x="adobe:ns:meta/" x:xmptk="Adobe XMP Core 5.6-c138 79.159824, 2016/09/14-01:09:01        ">
   <rdf:RDF xmlns:rdf="http://www.w3.org/1999/02/22-rdf-syntax-ns#">
      <rdf:Description rdf:about=""/>
   </rdf:RDF>
</x:xmpmeta>
                                                                                                    
                                                                                                    
                                                                                                    
                                                                                                    
                                                                                                    
                                                                                                    
                                                                                                    
                                                                                                    
                                                                                                    
                                                                                                    
                                                                                                    
                                                                                                    
                                                                                                    
                                                                                                    
                                                                                                    
                                                                                                    
                                                                                                    
                                                                                                    
                                                                                                    
                                                                                                    
                           
<?xpacket end="w"?></metadata>
<defs>
    <style>
      .cls-1 {
        fill: #09555f;
        fill-rule: evenodd;
      }
    </style>
  </defs>
  <path class="cls-1" d="M1083.85,4654.18a1.784,1.784,0,0,0-.8-0.18c-0.35.09-9.57,1.62-12.59,4.68a7.188,7.188,0,0,0-2.3,5.04,7,7,0,0,0,1.33,3.87l-1.95,1.98a0.87,0.87,0,0,0,0,1.26,0.8,0.8,0,0,0,.62.27,0.811,0.811,0,0,0,.62-0.27l7.09-7.2a0.887,0.887,0,0,0,0-1.26,0.847,0.847,0,0,0-1.24,0l-3.81,3.87a4.873,4.873,0,0,1-.89-2.61,5.363,5.363,0,0,1,1.77-3.69c1.95-1.89,7.36-3.33,10.46-3.96-0.62,3.06-2.04,8.55-3.9,10.53-1.5,1.53-3.01,2.16-4.52,1.8a0.9,0.9,0,0,0-1.06.72,0.912,0.912,0,0,0,.71,1.08,4.96,4.96,0,0,0,1.15.09,7.018,7.018,0,0,0,4.96-2.43c3.11-3.06,4.61-12.33,4.61-12.78A1.017,1.017,0,0,0,1083.85,4654.18Zm-18.53,10.8-1.42-1.44c1.25-1.8.98-3.87-.79-5.67-2.04-1.89-7.45-2.88-8.07-2.97a1.09,1.09,0,0,0-.8.27,1.142,1.142,0,0,0-.26.81c0.09,0.63,1.06,6.21,3.01,8.19a5.759,5.759,0,0,0,2.04,1.35h0.27a1.068,1.068,0,0,0,.88-0.63,0.94,0.94,0,0,0-.53-1.17,3.867,3.867,0,0,1-1.33-.9c-1.06-1.08-1.86-3.96-2.22-5.94,1.87,0.45,4.79,1.26,5.77,2.25,1.06,1.08,1.33,2.16.79,3.15l-0.88-.9a0.847,0.847,0,0,0-1.24,0,0.87,0.87,0,0,0,0,1.26l3.54,3.6a0.949,0.949,0,0,0,.62.27,0.929,0.929,0,0,0,.62-0.27A0.87,0.87,0,0,0,1065.32,4664.98Zm19.41,11.79a5.719,5.719,0,0,0-6.91-.99l-3.72,1.8a9.82,9.82,0,0,1-3.28.81,4.683,4.683,0,0,0,.88-2.7,1.786,1.786,0,0,0-1.77-1.8h-9.22a7.82,7.82,0,0,0-6.02,2.79l-3.11,3.6a2.353,2.353,0,0,0-2.03-1.08h-2.66a0.9,0.9,0,0,0,0,1.8h2.66a0.84,0.84,0,0,1,.88.9v5.4a0.84,0.84,0,0,1-.88.9h-2.66a0.9,0.9,0,0,0,0,1.8h2.66a2.59,2.59,0,0,0,2.48-1.8h4.87a5.313,5.313,0,0,0,1.24-.09l12.5-1.44a11.977,11.977,0,0,0,5.67-2.25l8.34-6.3a0.936,0.936,0,0,0,.35-0.63A1.022,1.022,0,0,0,1084.73,4676.77Zm-9.48,6.21a9.3,9.3,0,0,1-4.79,1.89l-12.49,1.44c-0.36,0-.71.09-1.07,0.09h-4.7v-4.14l3.9-4.5a6.156,6.156,0,0,1,4.7-2.16h9.13a2.631,2.631,0,0,1-2.66,2.7h-5.32a0.9,0.9,0,0,0,0,1.8h8.6a9.866,9.866,0,0,0,4.26-.99l3.81-1.8a3.916,3.916,0,0,1,4.08.09Z" transform="translate(-1046 -4654)"/>
</svg>
