<svg xmlns="http://www.w3.org/2000/svg" width="9" height="16" viewBox="0 0 9 16">
  <metadata><?xpacket begin="﻿" id="W5M0MpCehiHzreSzNTczkc9d"?>
<x:xmpmeta xmlns:x="adobe:ns:meta/" x:xmptk="Adobe XMP Core 5.6-c138 79.159824, 2016/09/14-01:09:01        ">
   <rdf:RDF xmlns:rdf="http://www.w3.org/1999/02/22-rdf-syntax-ns#">
      <rdf:Description rdf:about=""/>
   </rdf:RDF>
</x:xmpmeta>
                                                                                                    
                                                                                                    
                                                                                                    
                                                                                                    
                                                                                                    
                                                                                                    
                                                                                                    
                                                                                                    
                                                                                                    
                                                                                                    
                                                                                                    
                                                                                                    
                                                                                                    
                                                                                                    
                                                                                                    
                                                                                                    
                                                                                                    
                                                                                                    
                                                                                                    
                                                                                                    
                           
<?xpacket end="w"?></metadata>
<defs>
    <style>
      .cls-1 {
        fill: #064851;
        fill-rule: evenodd;
      }
    </style>
  </defs>
  <path id="Forma_1" data-name="Forma 1" class="cls-1" d="M1036.66,7853h-2.16a3.714,3.714,0,0,0-3.99,3.94v1.81h-2.17a0.335,0.335,0,0,0-.34.33v2.63a0.335,0.335,0,0,0,.34.33h2.17v6.63a0.335,0.335,0,0,0,.34.33h2.83a0.335,0.335,0,0,0,.34-0.33v-6.63h2.54a0.335,0.335,0,0,0,.34-0.33v-2.63a0.326,0.326,0,0,0-.1-0.23,0.349,0.349,0,0,0-.24-0.1h-2.54v-1.54c0-.74.18-1.11,1.19-1.11h1.45a0.335,0.335,0,0,0,.34-0.33v-2.44A0.335,0.335,0,0,0,1036.66,7853Z" transform="translate(-1028 -7853)"/>
</svg>
