<svg xmlns="http://www.w3.org/2000/svg" width="19" height="11" viewBox="0 0 19 11">
  <metadata><?xpacket begin="﻿" id="W5M0MpCehiHzreSzNTczkc9d"?>
<x:xmpmeta xmlns:x="adobe:ns:meta/" x:xmptk="Adobe XMP Core 5.6-c138 79.159824, 2016/09/14-01:09:01        ">
   <rdf:RDF xmlns:rdf="http://www.w3.org/1999/02/22-rdf-syntax-ns#">
      <rdf:Description rdf:about=""/>
   </rdf:RDF>
</x:xmpmeta>
                                                                                                    
                                                                                                    
                                                                                                    
                                                                                                    
                                                                                                    
                                                                                                    
                                                                                                    
                                                                                                    
                                                                                                    
                                                                                                    
                                                                                                    
                                                                                                    
                                                                                                    
                                                                                                    
                                                                                                    
                                                                                                    
                                                                                                    
                                                                                                    
                                                                                                    
                                                                                                    
                           
<?xpacket end="w"?></metadata>
<defs>
    <style>
      .cls-1 {
        fill: #064851;
        fill-rule: evenodd;
      }
    </style>
  </defs>
  <path class="cls-1" d="M1112.35,7863a25.767,25.767,0,0,1,1.86,1.91,5.555,5.555,0,0,1,.67.99,0.707,0.707,0,0,1-.42,1.09h-2.77a2.113,2.113,0,0,1-1.76-.73c-0.39-.4-0.74-0.82-1.11-1.24a2.372,2.372,0,0,0-.5-0.45,0.574,0.574,0,0,0-.92.23,2.993,2.993,0,0,0-.29,1.32,0.74,0.74,0,0,1-.88.87,6.932,6.932,0,0,1-3.96-.87,8.893,8.893,0,0,1-2.67-2.55,34.819,34.819,0,0,1-3.5-6.4c-0.22-.5-0.06-0.77.48-0.78,0.9-.02,1.81-0.02,2.71,0a0.786,0.786,0,0,1,.75.57,17.276,17.276,0,0,0,1.84,3.48,2.869,2.869,0,0,0,.69.78,0.42,0.42,0,0,0,.72-0.21,2.274,2.274,0,0,0,.16-0.73,10.956,10.956,0,0,0-.05-2.56,1.056,1.056,0,0,0-.88-0.98c-0.27-.05-0.23-0.15-0.1-0.3a0.974,0.974,0,0,1,.85-0.43h3.13a0.738,0.738,0,0,1,.66.83l0.01,3.55a1.023,1.023,0,0,0,.44.91,0.605,0.605,0,0,0,.62-0.31,11.024,11.024,0,0,0,1.76-2.77,13.3,13.3,0,0,0,.57-1.35,0.681,0.681,0,0,1,.71-0.49h3.01a1.229,1.229,0,0,1,.27.02,0.531,0.531,0,0,1,.49.81,7.846,7.846,0,0,1-1.2,2.13c-0.5.71-1.04,1.39-1.54,2.11a0.982,0.982,0,0,0,.15,1.55h0Z" transform="translate(-1096 -7856)"/>
</svg>
