<svg xmlns="http://www.w3.org/2000/svg" width="17" height="17" viewBox="0 0 17 17">
  <metadata><?xpacket begin="﻿" id="W5M0MpCehiHzreSzNTczkc9d"?>
<x:xmpmeta xmlns:x="adobe:ns:meta/" x:xmptk="Adobe XMP Core 5.6-c138 79.159824, 2016/09/14-01:09:01        ">
   <rdf:RDF xmlns:rdf="http://www.w3.org/1999/02/22-rdf-syntax-ns#">
      <rdf:Description rdf:about=""/>
   </rdf:RDF>
</x:xmpmeta>
                                                                                                    
                                                                                                    
                                                                                                    
                                                                                                    
                                                                                                    
                                                                                                    
                                                                                                    
                                                                                                    
                                                                                                    
                                                                                                    
                                                                                                    
                                                                                                    
                                                                                                    
                                                                                                    
                                                                                                    
                                                                                                    
                                                                                                    
                                                                                                    
                                                                                                    
                                                                                                    
                           
<?xpacket end="w"?></metadata>
<defs>
    <style>
      .cls-1 {
        fill: #06444d;
        fill-rule: evenodd;
      }
    </style>
  </defs>
  <path class="cls-1" d="M813.652,7854.14a8.316,8.316,0,0,0-5.832-2.14,8.737,8.737,0,0,0-6.242,2.44,8.012,8.012,0,0,0-2.578,6.07,8.249,8.249,0,0,0,2.453,5.98,8.856,8.856,0,0,0,6.619,2.51,12.544,12.544,0,0,0,4.923-1.02,1.046,1.046,0,0,0,.566-1.35h0a1.048,1.048,0,0,0-1.385-.56,10.391,10.391,0,0,1-4.108.9,6.325,6.325,0,0,1-4.943-1.93,6.5,6.5,0,0,1-1.749-4.52,6.423,6.423,0,0,1,1.875-4.71,6.256,6.256,0,0,1,4.6-1.89,6.158,6.158,0,0,1,4.247,1.55,5.039,5.039,0,0,1,1.732,3.91,4.352,4.352,0,0,1-.794,2.67,2.138,2.138,0,0,1-1.648,1.07,0.42,0.42,0,0,1-.462-0.49,9.115,9.115,0,0,1,.059-0.94l0.651-5.28H809.4l-0.143.52a2.926,2.926,0,0,0-1.876-.69,3.593,3.593,0,0,0-2.767,1.27,5.337,5.337,0,0,0-.13,6.45,3.109,3.109,0,0,0,2.46,1.21,2.8,2.8,0,0,0,2.2-1.07,2.286,2.286,0,0,0,2.026,1.02,4.3,4.3,0,0,0,3.4-1.7,6.121,6.121,0,0,0,1.434-4.09A6.767,6.767,0,0,0,813.652,7854.14Zm-5.157,7.98a1.737,1.737,0,0,1-1.417.8,1.025,1.025,0,0,1-.9-0.59,2.77,2.77,0,0,1-.347-1.45,2.815,2.815,0,0,1,.483-1.72,1.439,1.439,0,0,1,1.2-.66,1.494,1.494,0,0,1,1.1.49,1.809,1.809,0,0,1,.483,1.32A2.968,2.968,0,0,1,808.5,7862.12Z" transform="translate(-799 -7852)"/>
</svg>
