<svg xmlns="http://www.w3.org/2000/svg" width="29" height="29" viewBox="0 0 29 29"><defs><style>.cls-1{fill:#09555f;fill-rule:evenodd}</style></defs><path id="Forma_1" data-name="Forma 1" class="cls-1" d="M792.15 4200.92h-2.435a11.731 11.731 0 0 0-.754-1.82l1.723-1.72a.859.859 0 0 0 .248-.6.842.842 0 0 0-.248-.6l-3.861-3.86a.836.836 0 0 0-1.2 0l-1.723 1.72a12.038 12.038 0 0 0-1.818-.76v-2.43a.85.85 0 0 0-.85-.85h-5.46a.85.85 0 0 0-.85.85v2.43a12.038 12.038 0 0 0-1.818.76l-1.723-1.72a.835.835 0 0 0-1.2 0l-3.861 3.86a.838.838 0 0 0-.249.6.856.856 0 0 0 .249.6l1.722 1.72a11.731 11.731 0 0 0-.754 1.82h-2.438a.849.849 0 0 0-.85.85v5.46a.849.849 0 0 0 .85.85h2.435a12.151 12.151 0 0 0 .754 1.82l-1.722 1.72a.856.856 0 0 0-.249.6.838.838 0 0 0 .249.6l3.861 3.86a.852.852 0 0 0 1.2 0l1.723-1.72a11.991 11.991 0 0 0 1.818.75v2.44a.85.85 0 0 0 .85.85h5.46a.85.85 0 0 0 .85-.85v-2.44a11.046 11.046 0 0 0 1.818-.75l1.723 1.72a.853.853 0 0 0 1.2 0l3.861-3.86a.849.849 0 0 0 0-1.2l-1.723-1.72a12.151 12.151 0 0 0 .754-1.82h2.435a.849.849 0 0 0 .85-.85v-5.46a.849.849 0 0 0-.847-.85zm-.849 5.46h-2.225a.847.847 0 0 0-.823.64 9.892 9.892 0 0 1-1.077 2.59.86.86 0 0 0 .131 1.04l1.574 1.57-2.659 2.66-1.574-1.57a.838.838 0 0 0-1.033-.13 9.873 9.873 0 0 1-2.6 1.07.86.86 0 0 0-.638.83v2.22h-3.76v-2.22a.86.86 0 0 0-.638-.83 9.887 9.887 0 0 1-2.6-1.07.838.838 0 0 0-1.033.13l-1.574 1.57-2.659-2.66 1.574-1.57a.86.86 0 0 0 .131-1.04 9.9 9.9 0 0 1-1.078-2.59.846.846 0 0 0-.822-.64H765.7v-3.76h2.225a.846.846 0 0 0 .822-.64 10.139 10.139 0 0 1 1.078-2.6.848.848 0 0 0-.131-1.03l-1.574-1.57 2.659-2.66 1.574 1.57a.838.838 0 0 0 1.033.13 9.887 9.887 0 0 1 2.6-1.07.86.86 0 0 0 .638-.83v-2.22h3.76v2.22a.86.86 0 0 0 .638.83 9.873 9.873 0 0 1 2.6 1.07.838.838 0 0 0 1.033-.13l1.574-1.57 2.659 2.66-1.574 1.57a.848.848 0 0 0-.131 1.03 10.066 10.066 0 0 1 1.077 2.6.848.848 0 0 0 .823.64h2.217v3.76zm-8.94-6.74a.848.848 0 0 0-1.194.13l-2.374 2.99a2.826 2.826 0 0 0-.293-.02 1.76 1.76 0 1 0 0 3.52 1.769 1.769 0 0 0 1.76-1.76 1.738 1.738 0 0 0-.136-.68l2.374-2.99a.844.844 0 0 0-.137-1.19z" transform="translate(-764 -4190)"/></svg>