<svg xmlns="http://www.w3.org/2000/svg" width="43" height="35" viewBox="0 0 43 35"><defs><style>.cls-1{fill:#09555f;fill-rule:evenodd}</style></defs><path class="cls-1" d="M41.1 0H1.9A1.887 1.887 0 0 0 0 1.87v31.26A1.887 1.887 0 0 0 1.9 35h39.2a1.887 1.887 0 0 0 1.9-1.87V1.87A1.887 1.887 0 0 0 41.1 0zm0 33.13H1.9V1.87h39.2v31.26zM37.54 4.45H5.46a.947.947 0 0 0-.95.94v20.7a.947.947 0 0 0 .95.94h32.08a.947.947 0 0 0 .95-.94V5.39a.947.947 0 0 0-.95-.94zM6.41 6.33h30.18v15.85l-5.98-5.9a.966.966 0 0 0-1.34 0l-3.65 3.6-8.36-8.25a.96.96 0 0 0-1.35 0l-9.5 9.38V6.33zm0 18.83v-1.5l10.18-10.04 11.69 11.54H6.41zm30.18 0h-5.62l-4.01-3.96 2.98-2.93 6.43 6.35a1.122 1.122 0 0 0 .22.16v.38zM25.56 8.1a3.545 3.545 0 1 0 3.59 3.54 3.57 3.57 0 0 0-3.59-3.54zm0 5.21a1.665 1.665 0 1 1 1.69-1.67 1.684 1.684 0 0 1-1.69 1.67zM13.72 29.14H5.46a.935.935 0 1 0 0 1.87h8.26a.935.935 0 1 0 0-1.87zm6.49 0h-2.16a.935.935 0 1 0 0 1.87h2.16a.935.935 0 1 0 0-1.87z"/></svg>