<svg xmlns="http://www.w3.org/2000/svg" width="42.97" height="30" viewBox="0 0 42.97 30"><defs><style>.cls-1{fill:#09555f;fill-rule:evenodd}</style></defs><path id="Forma_1" data-name="Forma 1" class="cls-1" d="M1052.79 4198.85a4.425 4.425 0 1 0-4.36-4.43 4.407 4.407 0 0 0 4.36 4.43zm0-6.74a2.31 2.31 0 1 1-2.28 2.31 2.3 2.3 0 0 1 2.28-2.31zm14.33 6.74a4.425 4.425 0 1 0-4.36-4.43 4.407 4.407 0 0 0 4.36 4.43zm0-6.74a2.31 2.31 0 1 1-2.28 2.31 2.307 2.307 0 0 1 2.28-2.31zm-7.85 16.42l1.6-3.74c.75-1.78 2.12-4.14 5.2-4.14h2.11c3.08 0 4.45 2.36 5.2 4.14l1.6 3.74a1.068 1.068 0 0 1-.55 1.39 1.039 1.039 0 0 1-1.37-.56l-1.59-3.74c-.87-2.03-1.82-2.86-3.29-2.86h-2.11c-1.47 0-2.42.83-3.29 2.86l-1.59 3.74a1.05 1.05 0 0 1-.96.64 1.15 1.15 0 0 1-.41-.08 1.068 1.068 0 0 1-.55-1.39zm22.7 3.6a2.422 2.422 0 0 1-1.06 1.62c-1.45 1.04-4.36 1.46-7.91 1.46a76.519 76.519 0 0 1-13.26-1.36 71.925 71.925 0 0 1-14.37-4.09c-4.37-1.87-6.36-3.67-6.08-5.5.29-1.96 2.95-2.49 3.83-2.67a1.059 1.059 0 0 1 .4 2.08c-1.94.39-2.17.9-2.17.91-.03.21.65 1.35 4.22 2.97l1.18-2.76c.76-1.78 2.12-4.14 5.2-4.14h2.12a4.848 4.848 0 0 1 3.89 1.87 1.058 1.058 0 0 1-.14 1.48 1.029 1.029 0 0 1-1.47-.14 2.775 2.775 0 0 0-2.28-1.1h-2.12c-1.46 0-2.42.83-3.28 2.86l-1.16 2.73a73.4 73.4 0 0 0 12.61 3.42c10.29 1.91 17.77 1.56 19.58.26a.616.616 0 0 0 .21-.22c0-.01-.03-.57-1.67-1.62a1.074 1.074 0 0 1-.33-1.46 1.043 1.043 0 0 1 1.44-.33c1.96 1.25 2.81 2.47 2.62 3.73zm-1.37 4.5a1.056 1.056 0 0 1 .04 1.49c-1.23 1.34-4.4 1.88-8.39 1.88a76.55 76.55 0 0 1-13.24-1.37c-9.67-1.8-17.62-4.82-19.78-7.51a1.072 1.072 0 0 1 .16-1.49 1.04 1.04 0 0 1 1.47.16c1.54 1.93 8.41 4.87 18.53 6.76 11.55 2.14 18.6 1.34 19.73.12a1.045 1.045 0 0 1 1.48-.04z" transform="translate(-1039 -4190)"/></svg>