<svg xmlns="http://www.w3.org/2000/svg" width="41" height="34" viewBox="0 0 41 34"><defs><style>.cls-1{fill:#09555f;fill-rule:evenodd}</style></defs><path class="cls-1" d="M39.291 25.5V0H1.708v25.5H0v4.6L3.917 34h33.166L41 30.1v-4.6h-1.709zM3.417 1.7h34.166v23.8H3.417V1.7zm35.874 27.7l-2.916 2.9H4.624l-2.916-2.9v-2.2h37.583v2.2zm-19.645-.5h1.708v1.7h-1.708v-1.7zm-3.417 0h1.708v1.7h-1.708v-1.7zm6.833 0h1.709v1.7h-1.709v-1.7zm5.387-15.67l-5.038-1.42L20.5 7.48l-2.911 4.33-5.039 1.42 3.24 4.09-.2 5.2 4.913-1.8 4.912 1.8-.2-5.2zM20.5 18.91l-3.107 1.14.129-3.29-2.049-2.59 3.186-.89 1.841-2.74 1.84 2.74 3.186.89-2.048 2.59.129 3.29zm14.274-7.88l-5.039-1.42-2.911-4.33-2.731 4.07 1.42.94 1.311-1.95 1.84 2.74 3.187.9-2.049 2.58.129 3.3-2.057-.76-.591 1.6 4.454 1.63-.2-5.21zm-20.6-5.75l-2.91 4.33-5.039 1.42 3.24 4.09-.2 5.21 4.454-1.63-.591-1.6-2.057.76.128-3.3-2.048-2.58 3.186-.9 1.84-2.74 1.312 1.95 1.419-.94z"/></svg>