<svg xmlns="http://www.w3.org/2000/svg" width="39" height="36" viewBox="0 0 39 36"><defs><style>.cls-1{fill:#09555f;fill-rule:evenodd}</style></defs><path class="cls-1" d="M7.028 18.17a1.19 1.19 0 1 1-1.218 1.19 1.2 1.2 0 0 1 1.218-1.19zm4.99 2.38a1.19 1.19 0 1 0 0-2.38 1.19 1.19 0 1 0 0 2.38zm4.983-2.38a1.19 1.19 0 1 1-1.218 1.19A1.2 1.2 0 0 1 17 18.17zm4.99 0a1.19 1.19 0 1 1-1.218 1.19 1.2 1.2 0 0 1 1.218-1.19zm4.991 0a1.19 1.19 0 1 1-1.218 1.19 1.2 1.2 0 0 1 1.218-1.19zm4.99 0a1.19 1.19 0 1 1-1.218 1.19 1.2 1.2 0 0 1 1.218-1.19zM9.527 23.21a1.185 1.185 0 1 1-1.218 1.19 1.2 1.2 0 0 1 1.218-1.19zm4.982 0a1.185 1.185 0 1 1-1.217 1.19 1.2 1.2 0 0 1 1.217-1.19zm4.991 0a1.185 1.185 0 1 1-1.218 1.19 1.2 1.2 0 0 1 1.218-1.19zm4.982 0a1.185 1.185 0 1 1-1.217 1.19 1.2 1.2 0 0 1 1.217-1.19zm4.991 0a1.185 1.185 0 1 1-1.218 1.19 1.2 1.2 0 0 1 1.218-1.19zM9.83 29.43a.967.967 0 0 0 .978.95h17.4a.955.955 0 1 0 0-1.91H10.8a.968.968 0 0 0-.97.96zM22.715 7.69h5.643a3.846 3.846 0 1 0 0-7.69L9.217.01a.95.95 0 1 0 .008 1.9l19.141-.01a1.946 1.946 0 1 1 0 3.89h-5.643a4.226 4.226 0 0 0-4.274 4.16v2.85h-16.2a2.169 2.169 0 0 0-2.252 2.06v19.07A2.171 2.171 0 0 0 2.249 36h34.5a2.171 2.171 0 0 0 2.253-2.07V14.86a2.17 2.17 0 0 0-2.253-2.06H20.4V9.95a2.286 2.286 0 0 1 2.315-2.26zm14.335 7.17v19.07a.279.279 0 0 1-.3.17H2.25a.278.278 0 0 1-.3-.17V14.86a.278.278 0 0 1 .3-.17h34.5a.284.284 0 0 1 .3.17z"/></svg>