<svg xmlns="http://www.w3.org/2000/svg" width="46" height="35" viewBox="0 0 46 35"><defs><style>.cls-1{fill:#09555f;fill-rule:evenodd}</style></defs><path class="cls-1" d="M43.82 6.86a.965.965 0 0 0-1.35-.23.978.978 0 0 0-.24 1.36 9.93 9.93 0 0 1 0 11.46.978.978 0 0 0 .24 1.36.957.957 0 0 0 .56.18.974.974 0 0 0 .79-.42 11.868 11.868 0 0 0 0-13.71zm-9.09.63V2.86A2.814 2.814 0 0 0 33.28.37a2.844 2.844 0 0 0-2.9.06 30.142 30.142 0 0 1-15.69 4.38h-7.1a3.312 3.312 0 0 0-3.3 3.04H2.73A2.734 2.734 0 0 0 0 10.58v6.28a2.734 2.734 0 0 0 2.73 2.73h1.56a3.319 3.319 0 0 0 2.09 2.81l4.11 11.35A1.9 1.9 0 0 0 12.27 35h5.35a1.875 1.875 0 0 0 1.55-.81 1.9 1.9 0 0 0 .23-1.73l-3.56-9.81a30.1 30.1 0 0 1 14.54 4.36 2.8 2.8 0 0 0 1.49.43 2.858 2.858 0 0 0 1.41-.37 2.814 2.814 0 0 0 1.45-2.49v-4.63a6.263 6.263 0 0 0 0-12.46zM4.27 17.64H2.73a.781.781 0 0 1-.78-.78v-6.28a.781.781 0 0 1 .78-.78h1.54v7.84zm13.27 15.41h-5.23L8.53 22.63h5.23zm14.78-7.68a.887.887 0 0 1-.93-.02 32.119 32.119 0 0 0-16.7-4.67h-7.1a1.366 1.366 0 0 1-1.37-1.37V8.13a1.366 1.366 0 0 1 1.37-1.37h5.88v10.16a.97.97 0 0 0 1.94 0V6.75a32.113 32.113 0 0 0 15.98-4.66.887.887 0 0 1 .93-.02.873.873 0 0 1 .46.79v21.72a.873.873 0 0 1-.46.79zm2.41-7.38V9.45a4.317 4.317 0 0 1 0 8.54z"/></svg>