<svg xmlns="http://www.w3.org/2000/svg" width="43" height="37" viewBox="0 0 43 37"><defs><style>.cls-1{fill:#09555f;fill-rule:evenodd}</style></defs><path id="Forma_1" data-name="Forma 1" class="cls-1" d="M1358.15 4449.53a.97.97 0 1 1-.97.97.965.965 0 0 1 .97-.97zm5.82 0a.97.97 0 1 1-.97.97.965.965 0 0 1 .97-.97zm-2.91 2.92a.97.97 0 1 1-.97.97.965.965 0 0 1 .97-.97zm0-5.85a.975.975 0 1 1-.97.98.973.973 0 0 1 .97-.98zm-16.5 2.93h-1.94v-1.95a.97.97 0 1 0-1.94 0v1.95h-1.94a.97.97 0 1 0 0 1.94h1.94v1.95a.97.97 0 0 0 1.94 0v-1.95h1.94a.97.97 0 0 0 0-1.94zm27.66 9.34l-2.42-11.68a6.927 6.927 0 0 0-6.6-5.45h-6.99a.97.97 0 1 0 0 1.94h6.89a4.9 4.9 0 0 1 4.76 3.9l2.52 11.68a19.608 19.608 0 0 1 .39 4.09 3.69 3.69 0 0 1-3.69 3.7 3.56 3.56 0 0 1-3.4-2.33l-1.94-4.97a7.071 7.071 0 0 0-.68-1.17v-.39a3.9 3.9 0 0 0-3.88-3.89 3.959 3.959 0 0 0-3.79 2.92h-4.17a3.9 3.9 0 0 0-7.67.97v.39a3.44 3.44 0 0 0-.68 1.17l-1.94 4.97a3.433 3.433 0 0 1-3.3 2.33 3.69 3.69 0 0 1-3.69-3.7 19.608 19.608 0 0 1 .39-4.09l2.52-11.68a4.9 4.9 0 0 1 4.76-3.9h12.71a.921.921 0 0 0 .98-.97v-.97a.924.924 0 0 0-.98-.98v-1.94a.924.924 0 0 1 .98-.98h5.82a2.92 2.92 0 0 0 0-5.84h-10.68a.975.975 0 0 0 0 1.95h10.68a.97.97 0 0 1 0 1.94h-5.82a2.876 2.876 0 0 0-2.92 2.93v1.94a.921.921 0 0 0-.97.98h-9.8a6.671 6.671 0 0 0-6.6 5.45l-2.52 11.68a22.757 22.757 0 0 0-.49 4.48 5.645 5.645 0 0 0 10.87 2.14l1.85-4.57a3.864 3.864 0 0 0 6.69-1.56h4.18a3.868 3.868 0 0 0 3.78 2.92 3.771 3.771 0 0 0 2.91-1.36l1.85 4.57a5.645 5.645 0 0 0 10.87-2.14c-.29-1.46-.49-3.02-.78-4.48zm-26.69 1.37a1.95 1.95 0 1 1 1.94-1.95 1.95 1.95 0 0 1-1.94 1.95zm11.65 0a1.95 1.95 0 1 1 1.94-1.95 1.95 1.95 0 0 1-1.94 1.95z" transform="translate(-1330 -4432)"/></svg>