<svg xmlns="http://www.w3.org/2000/svg" width="41" height="35" viewBox="0 0 41 35"><defs><style>.cls-1{fill:#09555f;fill-rule:evenodd}</style></defs><path id="Forma_1" data-name="Forma 1" class="cls-1" d="M795.889 4660h-38.778a1.124 1.124 0 0 0-1.111 1.13v25.05a1.117 1.117 0 0 0 1.111 1.13h5.4a1.13 1.13 0 0 0 0-2.26h-4.293v-22.79h36.554v22.79h-13.657a1.1 1.1 0 0 0-.948.54l-3.667 6.11-3.667-6.11a1.109 1.109 0 0 0-1.528-.38 1.151 1.151 0 0 0-.368 1.56l4.615 7.69a1.1 1.1 0 0 0 1.9 0l4.29-7.15h14.151a1.117 1.117 0 0 0 1.111-1.13v-25.05a1.124 1.124 0 0 0-1.115-1.13zm-15.662 11.31a1.1 1.1 0 0 0-1.572 0l-3.16 3.22-1.15-1.17a1.1 1.1 0 0 0-1.572 0 1.146 1.146 0 0 0 0 1.6l1.936 1.97a1.1 1.1 0 0 0 1.572 0l3.946-4.02a1.146 1.146 0 0 0 0-1.6zm4.486 2.81a8.214 8.214 0 1 0-8.213 8.37 8.3 8.3 0 0 0 8.213-8.37zm-14.2 0a5.991 5.991 0 1 1 5.99 6.1 6.055 6.055 0 0 1-5.993-6.1z" transform="translate(-756 -4660)"/></svg>