<svg xmlns="http://www.w3.org/2000/svg" width="39" height="36" viewBox="0 0 39 36"><defs><style>.cls-1{fill:#09555f;fill-rule:evenodd}</style></defs><path class="cls-1" d="M37.85.18a1.784 1.784 0 0 0-.8-.18c-.35.09-9.57 1.62-12.59 4.68a7.188 7.188 0 0 0-2.3 5.04 7 7 0 0 0 1.33 3.87l-1.95 1.98a.87.87 0 0 0 0 1.26.8.8 0 0 0 .62.27.811.811 0 0 0 .62-.27l7.09-7.2a.887.887 0 0 0 0-1.26.847.847 0 0 0-1.24 0l-3.81 3.87a4.873 4.873 0 0 1-.89-2.61 5.363 5.363 0 0 1 1.77-3.69c1.95-1.89 7.36-3.33 10.46-3.96-.62 3.06-2.04 8.55-3.9 10.53-1.5 1.53-3.01 2.16-4.52 1.8a.9.9 0 0 0-1.06.72.912.912 0 0 0 .71 1.08 4.96 4.96 0 0 0 1.15.09 7.018 7.018 0 0 0 4.96-2.43c3.11-3.06 4.61-12.33 4.61-12.78a1.017 1.017 0 0 0-.26-.81zm-18.53 10.8L17.9 9.54c1.25-1.8.98-3.87-.79-5.67C15.07 1.98 9.66.99 9.04.9a1.09 1.09 0 0 0-.8.27 1.142 1.142 0 0 0-.26.81c.09.63 1.06 6.21 3.01 8.19a5.759 5.759 0 0 0 2.04 1.35h.27a1.068 1.068 0 0 0 .88-.63.94.94 0 0 0-.53-1.17 3.867 3.867 0 0 1-1.33-.9c-1.06-1.08-1.86-3.96-2.22-5.94 1.87.45 4.79 1.26 5.77 2.25 1.06 1.08 1.33 2.16.79 3.15l-.88-.9a.847.847 0 0 0-1.24 0 .87.87 0 0 0 0 1.26l3.54 3.6a.949.949 0 0 0 .62.27.929.929 0 0 0 .62-.27.87.87 0 0 0 0-1.26zm19.41 11.79a5.719 5.719 0 0 0-6.91-.99l-3.72 1.8a9.82 9.82 0 0 1-3.28.81 4.683 4.683 0 0 0 .88-2.7 1.786 1.786 0 0 0-1.77-1.8h-9.22a7.82 7.82 0 0 0-6.02 2.79l-3.11 3.6a2.353 2.353 0 0 0-2.03-1.08H.89a.9.9 0 0 0 0 1.8h2.66a.84.84 0 0 1 .88.9v5.4a.84.84 0 0 1-.88.9H.89a.9.9 0 0 0 0 1.8h2.66a2.59 2.59 0 0 0 2.48-1.8h4.87a5.313 5.313 0 0 0 1.24-.09l12.5-1.44a11.977 11.977 0 0 0 5.67-2.25l8.34-6.3a.936.936 0 0 0 .35-.63 1.022 1.022 0 0 0-.27-.72zm-9.48 6.21a9.3 9.3 0 0 1-4.79 1.89l-12.49 1.44c-.36 0-.71.09-1.07.09H6.2v-4.14l3.9-4.5a6.156 6.156 0 0 1 4.7-2.16h9.13a2.631 2.631 0 0 1-2.66 2.7h-5.32a.9.9 0 0 0 0 1.8h8.6a9.866 9.866 0 0 0 4.26-.99l3.81-1.8a3.916 3.916 0 0 1 4.08.09z"/></svg>