<svg xmlns="http://www.w3.org/2000/svg" width="9" height="16" viewBox="0 0 9 16"><defs><style>.cls-1{fill:#064851;fill-rule:evenodd}</style></defs><path id="Forma_1" data-name="Forma 1" class="cls-1" d="M1036.66 7853h-2.16a3.714 3.714 0 0 0-3.99 3.94v1.81h-2.17a.335.335 0 0 0-.34.33v2.63a.335.335 0 0 0 .34.33h2.17v6.63a.335.335 0 0 0 .34.33h2.83a.335.335 0 0 0 .34-.33v-6.63h2.54a.335.335 0 0 0 .34-.33v-2.63a.326.326 0 0 0-.1-.23.349.349 0 0 0-.24-.1h-2.54v-1.54c0-.74.18-1.11 1.19-1.11h1.45a.335.335 0 0 0 .34-.33v-2.44a.335.335 0 0 0-.34-.33z" transform="translate(-1028 -7853)"/></svg>