<svg xmlns="http://www.w3.org/2000/svg" width="17" height="14" viewBox="0 0 17 14"><defs><style>.cls-1{fill:#064851;fill-rule:evenodd}</style></defs><path id="Forma_1" data-name="Forma 1" class="cls-1" d="M968.531 7854.26a7.09 7.09 0 0 1-2.216.86 3.452 3.452 0 0 0-2.545-1.12 3.509 3.509 0 0 0-3.488 3.53 3.649 3.649 0 0 0 .09.81 9.893 9.893 0 0 1-7.188-3.69 3.562 3.562 0 0 0 1.08 4.71 3.282 3.282 0 0 1-1.58-.44v.04a3.52 3.52 0 0 0 2.8 3.47 3.475 3.475 0 0 1-.919.13 3.542 3.542 0 0 1-.656-.07 3.5 3.5 0 0 0 3.257 2.46 6.984 6.984 0 0 1-4.331 1.51 7.6 7.6 0 0 1-.832-.05 9.8 9.8 0 0 0 5.346 1.59 9.929 9.929 0 0 0 9.922-10.06l-.011-.46a7.067 7.067 0 0 0 1.743-1.82 6.761 6.761 0 0 1-2 .55 3.52 3.52 0 0 0 1.528-1.95z" transform="translate(-952 -7854)"/></svg>