<svg xmlns="http://www.w3.org/2000/svg" width="19" height="11" viewBox="0 0 19 11"><defs><style>.cls-1{fill:#064851;fill-rule:evenodd}</style></defs><path class="cls-1" d="M16.35 7a25.767 25.767 0 0 1 1.86 1.91 5.555 5.555 0 0 1 .67.99.707.707 0 0 1-.42 1.09h-2.77a2.113 2.113 0 0 1-1.76-.73c-.39-.4-.74-.82-1.11-1.24a2.372 2.372 0 0 0-.5-.45.574.574 0 0 0-.92.23 2.993 2.993 0 0 0-.29 1.32.74.74 0 0 1-.88.87 6.932 6.932 0 0 1-3.96-.87A8.893 8.893 0 0 1 3.6 7.57a34.819 34.819 0 0 1-3.5-6.4C-.12.67.04.4.58.39c.9-.02 1.81-.02 2.71 0a.786.786 0 0 1 .75.57 17.276 17.276 0 0 0 1.84 3.48 2.869 2.869 0 0 0 .69.78.42.42 0 0 0 .72-.21 2.274 2.274 0 0 0 .16-.73 10.956 10.956 0 0 0-.05-2.56 1.056 1.056 0 0 0-.88-.98c-.27-.05-.23-.15-.1-.3a.974.974 0 0 1 .85-.43h3.13a.738.738 0 0 1 .66.83l.01 3.55a1.023 1.023 0 0 0 .44.91.605.605 0 0 0 .62-.31 11.024 11.024 0 0 0 1.76-2.77 13.3 13.3 0 0 0 .57-1.35.681.681 0 0 1 .71-.49h3.01a1.229 1.229 0 0 1 .27.02.531.531 0 0 1 .49.81 7.846 7.846 0 0 1-1.2 2.13c-.5.71-1.04 1.39-1.54 2.11A.982.982 0 0 0 16.35 7z"/></svg>